<?xml version="1.0" encoding="UTF-8"?>
<svg id="Layer_2" data-name="Layer 2" xmlns="http://www.w3.org/2000/svg" viewBox="0 0 60.91 60.91">
  <defs>
    <style>
      .cls-1, .cls-2, .cls-3, .cls-4, .cls-5, .cls-6 {
        fill: #004d28;
      }
    </style>
  </defs>
  <g id="Layer_1-2" data-name="Layer 1">
    <g>
      <path class="cls-6" d="M56.61,15.35c2.58,4.44,4.05,9.6,4.05,15.11s-1.47,10.66-4.05,15.1l-26.15-15.1,26.15-15.11Z"/>
      <path class="cls-3" d="M56.61,15.35l-26.15,15.11V.25c11.18,0,20.94,6.07,26.15,15.1Z"/>
      <path class="cls-4" d="M30.46,30.46l26.15,15.1c-5.2,9.03-14.96,15.1-26.15,15.1v-30.2Z"/>
      <path class="cls-5" d="M30.46,30.46v30.2c-11.19,0-20.95-6.07-26.16-15.1l26.16-15.1Z"/>
      <path class="cls-1" d="M30.46.25v30.21L4.3,15.35C9.51,6.32,19.27.25,30.46.25Z"/>
      <path class="cls-2" d="M30.46,30.46l-26.16,15.1C1.72,41.12.25,35.97.25,30.46s1.47-10.67,4.05-15.11l26.16,15.11Z"/>
    </g>
  </g>
</svg>
