<?xml version="1.0" encoding="UTF-8"?>
<svg id="Layer_2" data-name="Layer 2" xmlns="http://www.w3.org/2000/svg" viewBox="0 0 19.04 105.56">
  <defs>
    <style>
      .cls-1 {
        fill: #fff;
      }
    </style>
  </defs>
  <g id="Layer_1-2" data-name="Layer 1">
    <g>
      <path class="cls-1" d="M.65,105.12h5.71v.43H.65v-.43Z"/>
      <path class="cls-1" d="M6.36,103.49H2.03v-.39l1.08-.04-.06.07c-.24-.08-.44-.2-.6-.36-.17-.16-.29-.36-.38-.58-.09-.23-.13-.47-.13-.73,0-.32.06-.61.18-.86.12-.25.3-.44.54-.58s.53-.21.89-.21h2.8v.43h-2.67c-.47,0-.82.12-1.04.35-.22.23-.33.54-.33.91,0,.27.06.52.19.76.12.23.3.42.54.57.24.15.53.22.87.22h2.44v.43Z"/>
      <path class="cls-1" d="M6.45,96.85c0,.44-.09.83-.27,1.16-.18.34-.44.58-.77.71l-.25-.37c.29-.1.51-.29.67-.56.16-.27.24-.6.24-.98s-.08-.68-.23-.9c-.15-.22-.35-.32-.6-.32-.17,0-.31.05-.44.16-.12.11-.22.31-.28.6l-.22,1.01c-.09.42-.23.71-.42.89-.19.18-.43.26-.71.26-.23,0-.44-.07-.62-.21-.18-.14-.33-.33-.45-.58-.11-.25-.17-.53-.17-.86,0-.43.08-.79.26-1.07.17-.28.42-.48.77-.6l.23.36c-.31.09-.53.25-.67.48s-.21.51-.21.83c0,.24.04.45.11.64s.17.32.29.42c.12.1.27.15.43.15s.32-.06.46-.17c.13-.12.23-.32.3-.62l.23-1.04c.09-.41.22-.7.39-.86.18-.16.39-.24.65-.24s.49.07.68.21c.19.14.34.33.44.59.1.25.15.55.15.89Z"/>
      <path class="cls-1" d="M.83,93.16h4.39c.27,0,.48-.07.62-.2s.21-.32.21-.57c0-.16-.03-.3-.08-.43-.05-.12-.13-.23-.24-.33l.35-.17c.11.11.2.25.26.42.07.17.1.36.1.56,0,.23-.04.42-.13.6-.08.17-.21.31-.38.4-.17.1-.39.14-.66.14H.95l-.12-.43ZM2.03,91.54h.37v2.92h-.37v-2.92Z"/>
      <path class="cls-1" d="M1.19,90.31c0,.11-.03.2-.1.26s-.15.1-.26.1-.2-.03-.26-.1-.1-.15-.1-.26.03-.2.1-.26.15-.1.26-.1.2.03.26.1.1.15.1.26ZM2.03,90.09h4.33v.43H2.03v-.43Z"/>
      <path class="cls-1" d="M.83,87.79h4.39c.27,0,.48-.06.62-.2.14-.13.21-.32.21-.57,0-.16-.03-.3-.08-.43s-.13-.24-.24-.33l.35-.17c.11.11.2.25.26.42.07.17.1.36.1.56,0,.23-.04.42-.13.6-.08.17-.21.31-.38.4-.17.09-.39.14-.66.14H.95l-.12-.43ZM2.03,86.17h.37v2.92h-.37v-2.92Z"/>
      <path class="cls-1" d="M6.45,83.64c0,.3-.06.57-.17.8s-.28.42-.51.56c-.23.14-.53.2-.88.2h-2.86v-.43h2.75c.45,0,.78-.11.98-.33.2-.22.3-.52.3-.91,0-.23-.04-.44-.12-.63-.08-.19-.19-.35-.34-.48s-.31-.24-.49-.31c-.19-.07-.38-.11-.6-.11h-2.48v-.43h4.33v.39l-.89.02c.31.13.54.33.72.62.17.29.26.63.26,1.03Z"/>
      <path class="cls-1" d="M.83,79.28h4.39c.27,0,.48-.06.62-.2.14-.13.21-.32.21-.57,0-.16-.03-.3-.08-.43s-.13-.24-.24-.33l.35-.17c.11.11.2.25.26.42.07.17.1.36.1.56,0,.23-.04.42-.13.6-.08.17-.21.31-.38.4-.17.09-.39.14-.66.14H.95l-.12-.43ZM2.03,77.66h.37v2.92h-.37v-2.92Z"/>
      <path class="cls-1" d="M1.95,74.99c0-.4.09-.76.27-1.07s.44-.55.77-.73c.34-.18.74-.26,1.21-.26s.87.09,1.21.26c.34.18.6.42.78.73s.27.66.27,1.07-.09.76-.27,1.07-.44.55-.78.73c-.34.18-.74.26-1.21.26s-.87-.09-1.21-.26c-.34-.18-.6-.42-.77-.73s-.27-.67-.27-1.07ZM2.32,74.99c0,.33.08.62.23.86.15.24.37.43.64.57.28.14.62.2,1.01.2s.72-.07,1-.2c.28-.13.5-.32.65-.57s.22-.53.22-.86-.07-.61-.22-.86c-.15-.24-.37-.43-.65-.57-.28-.14-.62-.2-1-.2s-.73.07-1.01.2c-.28.14-.5.32-.64.57-.15.24-.23.53-.23.86Z"/>
      <path class="cls-1" d="M.65,66.9c0-.57.14-1.03.43-1.36.29-.34.68-.51,1.19-.51s.89.17,1.17.51c.28.34.42.8.42,1.37l.03.04v1.64h2.48v.43H.65v-2.12ZM3.48,66.91c0-.46-.1-.82-.31-1.06-.21-.25-.51-.37-.9-.37s-.69.12-.9.37c-.21.25-.32.6-.32,1.06v1.68h2.43v-1.68ZM3.56,66.57l2.8-1.84v.51l-2.56,1.7-.24-.36Z"/>
      <path class="cls-1" d="M6.45,61.93c0,.4-.09.75-.27,1.07-.18.31-.44.55-.78.73-.34.18-.74.26-1.21.26s-.87-.09-1.21-.26c-.34-.18-.6-.41-.77-.71-.18-.3-.27-.64-.27-1.03s.09-.73.26-1,.41-.49.72-.64.67-.22,1.07-.22c.05,0,.1,0,.15,0s.09,0,.13.01v3.59h-.39v-3.4l.06.22c-.5,0-.89.14-1.19.39-.29.26-.44.61-.44,1.06,0,.31.07.59.22.82.15.24.36.42.64.55.28.13.62.2,1.01.2s.72-.07,1-.2c.28-.13.5-.33.65-.57.15-.25.22-.53.22-.85s-.07-.62-.22-.86c-.14-.24-.34-.43-.6-.56l.2-.35c.21.1.39.24.53.42.15.17.26.37.34.6.08.23.12.47.12.74Z"/>
      <path class="cls-1" d="M.04,58.46h5.3c.27,0,.45-.05.56-.14.11-.09.17-.24.17-.43,0-.12,0-.22-.03-.29-.02-.07-.05-.16-.09-.26l.38.06c.04.07.06.16.08.26.02.09.03.2.03.32,0,.31-.09.54-.26.69-.18.15-.45.23-.83.23H.04v-.43Z"/>
      <path class="cls-1" d="M2.03,53.66v-.46l4.33,1.81v.43l-4.33,1.81v-.48l3.88-1.55-3.88-1.56Z"/>
      <path class="cls-1" d="M3.51,49.61c-.38,0-.67.1-.88.3s-.31.49-.31.87c0,.33.07.61.21.85.14.24.38.41.71.53l-.23.36c-.34-.13-.6-.34-.79-.64-.19-.3-.28-.66-.28-1.1,0-.32.06-.6.17-.83s.28-.43.5-.56c.22-.13.49-.2.82-.2h2.16c.31,0,.46-.14.46-.42,0-.12-.02-.22-.06-.31l.35.03c.05.1.08.23.08.38,0,.13-.03.26-.08.37-.05.12-.14.21-.26.28s-.29.11-.49.11h-.23v-.12c.24.05.45.17.61.34.16.18.29.38.36.61.08.23.12.46.12.69,0,.27-.04.51-.13.73-.09.21-.21.38-.38.5s-.37.18-.61.18c-.32,0-.58-.11-.78-.32s-.34-.52-.41-.91l-.36-1.79h.36l.31,1.58c.07.34.17.59.3.76.13.17.31.25.55.25s.42-.09.56-.27c.14-.18.2-.43.2-.76,0-.17-.02-.34-.07-.51-.05-.17-.12-.33-.22-.48-.1-.15-.23-.26-.38-.35-.15-.09-.34-.13-.56-.13h-1.32Z"/>
      <path class="cls-1" d="M6.45,43.34c0,.38-.09.71-.27,1.01-.18.3-.44.54-.78.71-.34.17-.74.25-1.21.25s-.89-.09-1.22-.27c-.33-.18-.59-.42-.77-.73-.18-.31-.26-.64-.26-1.01,0-.4.11-.75.32-1.04.21-.29.51-.48.89-.58l.04.05H.04v-.43h6.32v.39l-1.2.03-.02-.05c.28.05.51.16.71.32s.34.35.45.59c.1.23.15.49.15.76ZM6.07,43.28c0-.31-.08-.57-.23-.8-.15-.23-.37-.41-.66-.54-.29-.13-.63-.2-1.01-.2s-.71.07-.98.2c-.27.13-.48.31-.63.54-.15.23-.22.49-.22.79,0,.5.17.89.5,1.18.33.29.79.43,1.37.43s1.03-.14,1.37-.43c.33-.29.5-.67.5-1.16Z"/>
      <path class="cls-1" d="M6.45,38c0,.4-.09.75-.27,1.07-.18.31-.44.55-.78.73-.34.18-.74.26-1.21.26s-.87-.09-1.21-.26c-.34-.18-.6-.41-.77-.71-.18-.3-.27-.64-.27-1.03s.09-.73.26-1,.41-.49.72-.64.67-.22,1.07-.22c.05,0,.1,0,.15,0s.09,0,.13.01v3.59h-.39v-3.4l.06.22c-.5,0-.89.14-1.19.39-.29.26-.44.61-.44,1.06,0,.31.07.59.22.82.15.24.36.42.64.55.28.13.62.2,1.01.2s.72-.07,1-.2c.28-.13.5-.33.65-.57.15-.25.22-.53.22-.85s-.07-.62-.22-.86c-.14-.24-.34-.43-.6-.56l.2-.35c.21.1.39.24.53.42.15.17.26.37.34.6.08.23.12.47.12.74Z"/>
      <path class="cls-1" d="M4.92,27.75c.32.11.59.27.82.49.23.22.41.48.53.78.12.3.18.64.18,1.02,0,.52-.12.97-.36,1.36s-.58.69-1.02.91-.96.32-1.57.32-1.13-.11-1.57-.32c-.44-.21-.78-.51-1.02-.9-.24-.39-.36-.84-.36-1.36,0-.39.05-.73.16-1.02.11-.29.27-.54.48-.74.21-.2.47-.35.78-.46l.2.42c-.4.13-.7.34-.91.63-.2.29-.31.67-.31,1.13,0,.43.1.8.31,1.13.21.33.5.58.88.76s.83.27,1.36.27.98-.09,1.36-.27c.38-.18.67-.43.88-.75.21-.32.31-.7.31-1.13,0-.46-.11-.85-.33-1.18-.22-.32-.54-.55-.97-.68l.17-.43Z"/>
      <path class="cls-1" d="M1.19,26.4c0,.11-.03.2-.1.26s-.15.1-.26.1-.2-.03-.26-.1-.1-.15-.1-.26.03-.2.1-.26.15-.1.26-.1.2.03.26.1.1.15.1.26ZM2.03,26.19h4.33v.43H2.03v-.43Z"/>
      <path class="cls-1" d="M1.35,21.78v.4l-1.06.8,1.06.8v.4l-1.35-.96v-.48l1.35-.96ZM6.45,22.89c0,.4-.09.75-.27,1.07s-.44.56-.78.73c-.34.18-.74.26-1.21.26s-.87-.09-1.21-.26c-.34-.18-.6-.41-.77-.71s-.27-.64-.27-1.03.09-.73.26-1,.41-.49.72-.64.67-.23,1.07-.23c.05,0,.1,0,.15,0,.05,0,.09,0,.13.01v3.59h-.39v-3.4l.06.22c-.5,0-.89.14-1.19.39-.29.26-.44.61-.44,1.06,0,.31.07.59.22.82s.36.42.64.55c.28.13.62.2,1.01.2s.72-.07,1-.2c.28-.14.5-.33.65-.57.15-.24.22-.53.22-.85s-.07-.62-.22-.86c-.14-.24-.34-.43-.6-.56l.2-.35c.21.1.39.24.53.42.15.17.26.37.34.6.08.23.12.47.12.74Z"/>
      <path class="cls-1" d="M6.36,19.83H2.03v-.39l1.08-.04-.06.07c-.24-.08-.44-.2-.6-.36-.17-.16-.29-.36-.38-.58-.09-.23-.13-.47-.13-.73,0-.32.06-.61.18-.86.12-.25.3-.44.54-.58s.53-.21.89-.21h2.8v.43h-2.67c-.47,0-.82.12-1.04.35-.22.23-.33.54-.33.91,0,.27.06.52.19.76.12.23.3.42.54.57.24.15.53.22.87.22h2.44v.43Z"/>
      <path class="cls-1" d="M1.95,12.89c0-.29.05-.56.14-.79s.22-.43.4-.59c.17-.16.38-.29.63-.37l.19.41c-.31.09-.55.25-.72.48-.17.23-.26.52-.26.87,0,.32.07.6.22.84s.36.43.64.56c.28.13.62.2,1.01.2s.72-.07,1-.2c.28-.13.5-.32.65-.55.15-.24.22-.52.22-.84,0-.24-.04-.46-.12-.66-.08-.2-.2-.36-.36-.49s-.34-.21-.55-.25l.14-.4c.26.08.49.2.68.37.19.17.34.38.44.62.1.24.15.51.15.81,0,.39-.09.74-.27,1.05-.18.31-.44.55-.78.72-.34.17-.74.26-1.21.26s-.87-.09-1.21-.26c-.34-.18-.6-.42-.77-.73s-.27-.66-.27-1.05Z"/>
      <path class="cls-1" d="M1.19,9.74c0,.11-.03.2-.1.26s-.15.1-.26.1-.2-.03-.26-.1-.1-.15-.1-.26.03-.2.1-.26.15-.1.26-.1.2.03.26.1.1.15.1.26ZM2.03,9.53h4.33v.43H2.03v-.43Z"/>
      <path class="cls-1" d="M3.51,5.35c-.38,0-.67.1-.88.3-.21.2-.31.49-.31.87,0,.33.07.61.21.85.14.24.38.41.71.53l-.23.36c-.34-.13-.6-.34-.79-.64s-.28-.67-.28-1.1c0-.32.06-.6.17-.84.11-.24.28-.43.5-.56.22-.13.49-.2.82-.2h2.16c.31,0,.46-.14.46-.42,0-.12-.02-.23-.06-.31l.35.03c.05.1.08.23.08.38,0,.13-.03.26-.08.37s-.14.21-.26.28-.29.11-.49.11h-.23v-.12c.24.05.45.17.61.34.16.18.29.38.36.61s.12.46.12.69c0,.27-.04.51-.13.73-.09.21-.21.38-.38.5s-.37.18-.61.18c-.32,0-.58-.11-.78-.32-.2-.22-.34-.52-.41-.91l-.36-1.79h.36l.31,1.57c.07.34.17.6.3.76s.31.25.55.25.42-.09.56-.27c.14-.18.2-.43.2-.76,0-.17-.02-.34-.07-.51-.05-.17-.12-.33-.22-.48-.1-.15-.23-.26-.38-.35-.15-.09-.34-.13-.56-.13h-1.32Z"/>
      <path class="cls-1" d="M6.45,1.69c0,.44-.09.83-.27,1.16s-.44.58-.77.71l-.25-.37c.29-.1.51-.29.67-.56.16-.27.24-.6.24-.98s-.08-.68-.23-.9c-.15-.22-.35-.33-.6-.33-.17,0-.31.05-.44.16-.12.11-.22.31-.28.6l-.22,1.01c-.09.42-.23.71-.42.89-.19.18-.43.26-.71.26-.23,0-.44-.07-.62-.21-.18-.14-.33-.33-.45-.58-.11-.24-.17-.53-.17-.86,0-.43.08-.79.26-1.07.17-.28.42-.48.77-.6l.23.36c-.31.09-.53.25-.67.48s-.21.51-.21.83c0,.24.04.46.11.64s.17.32.29.42c.12.1.27.15.43.15s.32-.06.46-.17c.13-.12.23-.32.3-.61l.23-1.04c.09-.41.22-.7.39-.86.18-.16.39-.24.65-.24s.49.07.68.21.34.33.44.59c.1.25.15.55.15.89Z"/>
      <path class="cls-1" d="M17.18,100.48v.46l-1.79.72v2.73l1.79.72v.46l-5.71-2.29v-.51l5.71-2.29ZM14.99,104.22v-2.42l-3.1,1.21,3.1,1.2Z"/>
      <path class="cls-1" d="M17.18,99.46h-4.33v-.39l.9-.03c-.31-.13-.55-.33-.73-.62-.17-.29-.26-.6-.26-.96,0-.38.09-.7.27-.97s.44-.46.79-.57c-.22-.08-.41-.2-.57-.36s-.28-.36-.37-.59c-.09-.22-.13-.46-.13-.7,0-.3.06-.57.18-.82.12-.24.3-.44.54-.59.24-.15.54-.22.9-.22h2.8v.43h-2.76c-.43,0-.75.11-.96.34s-.32.53-.32.91c0,.27.07.52.2.75.13.23.31.41.54.55.23.13.5.2.81.2h2.49v.43h-2.76c-.43,0-.75.12-.96.35-.21.23-.32.53-.32.9,0,.26.06.5.19.74s.31.42.55.56c.24.14.52.22.85.22h2.45v.43Z"/>
      <path class="cls-1" d="M17.27,89.13c0,.27-.05.51-.15.74-.1.23-.24.42-.42.58-.18.16-.4.28-.65.35l-.07-.06,1.2.03v.39h-6.32v-.43h3.15l-.08.05c-.36-.12-.64-.32-.85-.62-.21-.3-.32-.64-.32-1.04s.09-.72.27-1.01.44-.53.77-.7.74-.26,1.21-.26.87.09,1.21.26c.34.17.6.41.78.71s.27.63.27,1.01ZM16.89,89.18c0-.49-.17-.88-.5-1.16-.33-.29-.79-.43-1.37-.43s-1.03.14-1.37.42c-.33.28-.5.67-.5,1.16,0,.3.08.57.23.81.15.24.37.42.65.55.28.13.62.2,1,.2s.71-.07.99-.2c.28-.13.5-.32.64-.55.15-.23.23-.5.23-.8Z"/>
      <path class="cls-1" d="M12.02,85.7c0,.11-.03.2-.1.26s-.15.1-.26.1-.2-.03-.26-.1-.1-.15-.1-.26.03-.2.1-.26.15-.1.26-.1.2.03.26.1.1.15.1.26ZM12.86,85.49h4.33v.43h-4.33v-.43Z"/>
      <path class="cls-1" d="M17.27,82.19c0,.4-.09.75-.27,1.06s-.44.56-.78.73c-.34.18-.74.26-1.21.26s-.87-.09-1.21-.26c-.34-.18-.6-.41-.77-.71-.18-.3-.27-.64-.27-1.03s.09-.73.26-1c.17-.28.41-.49.72-.64.31-.15.67-.22,1.07-.22.05,0,.1,0,.15,0,.05,0,.09,0,.13.01v3.59h-.39v-3.4l.06.22c-.5,0-.89.14-1.19.39-.29.26-.44.61-.44,1.06,0,.31.07.59.22.82s.36.42.64.55c.28.13.62.2,1.01.2s.72-.07,1-.2c.28-.14.5-.33.65-.57.15-.25.22-.53.22-.85s-.07-.62-.22-.86c-.14-.24-.34-.42-.6-.56l.2-.35c.21.1.39.24.53.42.15.17.26.37.34.6.08.22.12.47.12.74Z"/>
      <path class="cls-1" d="M17.18,79.13h-4.33v-.39l1.08-.03-.06.07c-.24-.08-.44-.2-.6-.36-.17-.16-.29-.35-.38-.58-.09-.22-.13-.47-.13-.73,0-.32.06-.61.18-.86s.3-.44.54-.58c.24-.14.53-.21.89-.21h2.8v.43h-2.67c-.47,0-.82.12-1.04.35s-.33.54-.33.91c0,.27.06.52.19.76.12.23.3.42.54.57.24.15.53.22.87.22h2.44v.43Z"/>
      <path class="cls-1" d="M11.65,73.31h4.39c.27,0,.48-.06.62-.19s.21-.32.21-.57c0-.16-.03-.3-.08-.43-.05-.12-.13-.24-.24-.33l.35-.16c.11.11.2.25.26.42s.1.35.1.56c0,.22-.04.42-.13.6-.08.17-.21.31-.38.4-.17.09-.39.14-.66.14h-4.33l-.12-.43ZM12.86,71.69h.37v2.92h-.37v-2.92Z"/>
      <path class="cls-1" d="M14.34,67.95c-.38,0-.67.1-.88.3s-.31.49-.31.87c0,.33.07.61.21.85.14.24.38.41.71.53l-.23.36c-.34-.13-.6-.34-.79-.64-.19-.3-.28-.66-.28-1.1,0-.32.06-.6.17-.83s.28-.43.5-.56c.22-.13.49-.2.82-.2h2.16c.31,0,.46-.14.46-.42,0-.12-.02-.22-.06-.31l.35.03c.05.1.08.23.08.38,0,.13-.03.26-.08.37-.05.12-.14.21-.26.28s-.29.11-.49.11h-.23v-.12c.24.05.45.17.61.34.16.18.29.38.36.61.08.23.12.46.12.69,0,.27-.04.51-.13.73-.09.21-.21.38-.38.5s-.37.18-.61.18c-.32,0-.58-.11-.78-.32s-.34-.52-.41-.91l-.36-1.79h.36l.31,1.58c.07.34.17.59.3.76.13.17.31.25.55.25s.42-.09.56-.27c.14-.18.2-.43.2-.76,0-.17-.02-.34-.07-.51-.05-.17-.12-.33-.22-.48-.1-.15-.23-.26-.38-.35-.15-.09-.34-.13-.56-.13h-1.32Z"/>
      <path class="cls-1" d="M12.02,65.61c0,.11-.03.2-.1.26s-.15.1-.26.1-.2-.03-.26-.1-.1-.15-.1-.26.03-.2.1-.26.15-.1.26-.1.2.03.26.1.1.15.1.26ZM12.86,65.4h4.33v.43h-4.33v-.43Z"/>
      <path class="cls-1" d="M17.27,62.4c0,.44-.09.83-.27,1.16-.18.34-.44.58-.77.71l-.25-.37c.29-.1.51-.29.67-.56.16-.27.24-.6.24-.98s-.08-.68-.23-.9c-.15-.22-.35-.32-.6-.32-.17,0-.31.05-.44.16-.12.11-.22.31-.28.6l-.22,1.01c-.09.42-.23.71-.42.89-.19.18-.43.26-.71.26-.23,0-.44-.07-.62-.21-.18-.14-.33-.33-.45-.58-.11-.25-.17-.53-.17-.86,0-.43.08-.79.26-1.07.17-.28.42-.48.77-.6l.23.36c-.31.09-.53.25-.67.48s-.21.51-.21.83c0,.24.04.45.11.64s.17.32.29.42c.12.1.27.15.43.15s.32-.06.46-.17c.13-.12.23-.32.3-.62l.23-1.04c.09-.41.22-.7.39-.86.18-.16.39-.24.65-.24s.49.07.68.21c.19.14.34.33.44.59.1.25.15.55.15.89Z"/>
      <path class="cls-1" d="M17.27,55.2c0,.4-.09.75-.27,1.06s-.44.56-.78.73c-.34.18-.74.26-1.21.26s-.87-.09-1.21-.26c-.34-.18-.6-.41-.77-.71-.18-.3-.27-.64-.27-1.03s.09-.73.26-1c.17-.28.41-.49.72-.64.31-.15.67-.22,1.07-.22.05,0,.1,0,.15,0,.05,0,.09,0,.13.01v3.59h-.39v-3.4l.06.22c-.5,0-.89.14-1.19.39-.29.26-.44.61-.44,1.06,0,.31.07.59.22.82s.36.42.64.55c.28.13.62.2,1.01.2s.72-.07,1-.2c.28-.14.5-.33.65-.57.15-.25.22-.53.22-.85s-.07-.62-.22-.86c-.14-.24-.34-.42-.6-.56l.2-.35c.21.1.39.24.53.42.15.17.26.37.34.6.08.22.12.47.12.74Z"/>
      <path class="cls-1" d="M11.47,45.58h.4v2.09h5.32v.43h-5.32v2.09h-.4v-4.61Z"/>
      <path class="cls-1" d="M17.27,43.52c0,.4-.09.75-.27,1.06s-.44.56-.78.73c-.34.18-.74.26-1.21.26s-.87-.09-1.21-.26c-.34-.18-.6-.41-.77-.71-.18-.3-.27-.64-.27-1.03s.09-.73.26-1c.17-.28.41-.49.72-.64.31-.15.67-.22,1.07-.22.05,0,.1,0,.15,0,.05,0,.09,0,.13.01v3.59h-.39v-3.4l.06.22c-.5,0-.89.14-1.19.39-.29.26-.44.61-.44,1.06,0,.31.07.59.22.82s.36.42.64.55c.28.13.62.2,1.01.2s.72-.07,1-.2c.28-.14.5-.33.65-.57.15-.25.22-.53.22-.85s-.07-.62-.22-.86c-.14-.24-.34-.42-.6-.56l.2-.35c.21.1.39.24.53.42.15.17.26.37.34.6.08.22.12.47.12.74Z"/>
      <path class="cls-1" d="M12.77,38.67c0-.29.05-.56.14-.79.09-.23.22-.43.4-.59.17-.16.38-.29.63-.37l.19.41c-.31.09-.55.25-.72.48-.17.23-.26.52-.26.87,0,.32.07.6.22.84s.36.43.64.56c.28.13.62.2,1.01.2s.72-.07,1-.2c.28-.13.5-.32.65-.55.15-.24.22-.52.22-.84,0-.24-.04-.46-.12-.66-.08-.2-.2-.36-.36-.49-.16-.13-.34-.21-.55-.26l.14-.4c.26.08.49.2.68.37.19.17.34.38.44.62.1.24.15.51.15.81,0,.39-.09.74-.27,1.05-.18.31-.44.55-.78.72-.34.17-.74.26-1.21.26s-.87-.09-1.21-.26c-.34-.18-.6-.42-.77-.73s-.27-.66-.27-1.05Z"/>
      <path class="cls-1" d="M17.18,35.73h-4.33v-.39l1.08-.04-.06.07c-.24-.08-.44-.2-.6-.36-.17-.16-.29-.36-.38-.58-.09-.23-.13-.47-.13-.73,0-.32.06-.61.18-.86.12-.25.3-.44.54-.58s.53-.21.89-.21h2.8v.43h-2.67c-.47,0-.82.12-1.04.35-.22.23-.33.54-.33.91,0,.27.06.52.19.76.12.23.3.42.54.57.24.15.53.22.87.22h2.44v.43Z"/>
      <path class="cls-1" d="M12.77,28.78c0-.4.09-.76.27-1.07s.44-.55.77-.73c.34-.18.74-.26,1.21-.26s.87.09,1.21.26c.34.18.6.42.78.73s.27.67.27,1.07-.09.76-.27,1.07-.44.55-.78.73c-.34.18-.74.26-1.21.26s-.87-.09-1.21-.26c-.34-.18-.6-.42-.77-.73s-.27-.67-.27-1.07ZM13.14,28.78c0,.33.08.61.23.86.15.24.37.43.64.57.28.13.62.2,1.01.2s.72-.07,1-.2c.28-.14.5-.33.65-.57.15-.24.22-.53.22-.86s-.07-.61-.22-.86-.37-.43-.65-.57c-.28-.14-.62-.2-1-.2s-.73.07-1.01.2c-.28.14-.5.33-.64.57-.15.24-.23.53-.23.86Z"/>
      <path class="cls-1" d="M10.86,25.06h5.3c.27,0,.45-.05.56-.14.11-.09.17-.24.17-.43,0-.12,0-.22-.03-.29-.02-.07-.05-.16-.09-.26l.38.06c.04.07.06.16.08.26.02.09.03.2.03.32,0,.31-.09.54-.26.69-.18.15-.45.23-.83.23h-5.32v-.43Z"/>
      <path class="cls-1" d="M12.77,21.36c0-.4.09-.76.27-1.07s.44-.55.77-.73c.34-.18.74-.26,1.21-.26s.87.09,1.21.26c.34.18.6.42.78.73s.27.67.27,1.07-.09.76-.27,1.07-.44.55-.78.73c-.34.18-.74.26-1.21.26s-.87-.09-1.21-.26c-.34-.18-.6-.42-.77-.73s-.27-.66-.27-1.07ZM13.14,21.36c0,.33.08.61.23.86.15.24.37.43.64.57.28.14.62.2,1.01.2s.72-.07,1-.2c.28-.14.5-.32.65-.57.15-.24.22-.53.22-.86s-.07-.62-.22-.86-.37-.43-.65-.57c-.28-.14-.62-.2-1-.2s-.73.07-1.01.2c-.28.13-.5.32-.64.57-.15.24-.23.53-.23.86Z"/>
      <path class="cls-1" d="M12.06,14.45l.38-.1v.04c0,.28.07.5.22.65.15.15.35.23.62.23l-.14.28c-.22,0-.41-.05-.57-.14-.16-.09-.29-.22-.38-.38-.09-.16-.13-.34-.13-.54v-.02h0ZM12.77,16.55c0-.34.06-.64.18-.9.12-.26.28-.47.49-.61.21-.14.46-.22.74-.22s.52.07.74.22c.22.14.38.35.5.61.12.26.18.56.18.9,0,.55-.13.98-.39,1.29-.26.31-.6.46-1.03.46-.28,0-.53-.07-.74-.22-.21-.15-.38-.35-.49-.61s-.18-.57-.18-.91ZM13.12,16.55c0,.38.1.69.29.93.19.24.45.36.77.36s.57-.12.77-.36c.2-.24.29-.55.29-.93s-.1-.69-.29-.93-.45-.36-.77-.36-.57.12-.77.36c-.19.24-.29.55-.29.93ZM16.74,15.82c0-.43.09-.76.27-1,.18-.24.42-.36.72-.36.27,0,.5.09.69.26.2.18.35.42.46.72.11.31.17.66.17,1.05,0,.65-.11,1.15-.33,1.5-.22.35-.5.52-.84.52-.24,0-.45-.09-.63-.26-.18-.18-.29-.43-.32-.77l.08.03c-.05.18-.14.35-.26.49-.12.14-.29.21-.52.21-.24,0-.44-.09-.59-.27-.15-.18-.24-.42-.26-.72l.16-.46v.18c.02.27.08.48.19.64.11.16.26.24.44.24.2,0,.34-.08.44-.23.1-.15.15-.35.15-.58v-1.17ZM18.68,16.49c0-.34-.04-.63-.12-.88-.08-.24-.19-.43-.32-.56-.14-.13-.29-.19-.45-.19-.2,0-.36.09-.49.26s-.18.44-.18.8v1.23c0,.27.06.5.19.68.13.18.3.27.51.27.26,0,.47-.14.63-.43.16-.29.24-.68.24-1.18Z"/>
      <path class="cls-1" d="M12.02,13.31c0,.11-.03.2-.1.26s-.15.1-.26.1-.2-.03-.26-.1-.1-.15-.1-.26.03-.2.1-.26.15-.1.26-.1.2.03.26.1.1.15.1.26ZM12.86,13.09h4.33v.43h-4.33v-.43Z"/>
      <path class="cls-1" d="M14.34,8.92c-.38,0-.67.1-.88.3-.21.2-.31.49-.31.87,0,.33.07.61.21.85.14.24.38.41.71.53l-.23.35c-.34-.13-.6-.34-.79-.64s-.28-.67-.28-1.1c0-.32.06-.6.17-.84s.28-.43.5-.56c.22-.13.49-.2.82-.2h2.16c.31,0,.46-.14.46-.42,0-.12-.02-.23-.06-.31l.35.03c.05.1.08.22.08.38,0,.13-.03.26-.08.37s-.14.21-.26.28-.29.11-.49.11h-.23v-.12c.24.05.45.17.61.34.16.18.29.38.36.61.08.23.12.46.12.69,0,.27-.04.51-.13.73-.09.21-.21.38-.38.5-.16.12-.37.18-.61.18-.32,0-.58-.11-.78-.33s-.34-.52-.41-.91l-.36-1.79h.36l.31,1.58c.07.34.17.59.3.76.13.17.31.25.55.25s.42-.09.56-.27c.14-.18.2-.43.2-.76,0-.17-.02-.34-.07-.51-.05-.17-.12-.33-.22-.48-.1-.15-.23-.26-.38-.35-.15-.09-.34-.13-.56-.13h-1.32Z"/>
    </g>
  </g>
</svg>