<?xml version="1.0" encoding="UTF-8"?>
<svg id="Layer_2" data-name="Layer 2" xmlns="http://www.w3.org/2000/svg" xmlns:xlink="http://www.w3.org/1999/xlink" viewBox="0 0 58.78 81.99">
  <defs>
    <style>
      .cls-1 {
        fill: url(#linear-gradient);
      }

      .cls-2 {
        fill: #fff;
      }

      .cls-3 {
        fill: #63c34a;
      }
    </style>
    <linearGradient id="linear-gradient" x1="75.58" y1="104.82" x2="15" y2="-.11" gradientUnits="userSpaceOnUse">
      <stop offset=".09" stop-color="#63c34a"/>
      <stop offset=".24" stop-color="#1da348"/>
      <stop offset=".6" stop-color="#168e40"/>
    </linearGradient>
    <symbol id="New_Symbol" data-name="New Symbol" viewBox="0 0 121.9 109.95">
      <g>
        <path class="cls-3" d="M121.9,14.08L107.1,0c-8.46,4.43-16.46,9.77-23.7,15.97-8.43,7.37-16,15.62-22.45,24.63-6.45-9.01-14.02-17.26-22.45-24.63C31.26,9.77,23.26,4.43,14.8,0L0,14.08c21.13,7.96,37.87,23.46,51.87,41.17-3.47,6.56-6.36,13.44-8.57,20.62-2.3,8.28-3.98,18.58,1.8,26.27,3.55,4.98,8.87,7.82,15.86,7.82h0c6.99,0,12.31-2.84,15.86-7.82,5.78-7.7,4.09-18,1.8-26.27-2.21-7.18-5.1-14.06-8.57-20.62,14-17.71,30.73-33.21,51.87-41.17ZM60.95,98.6c-10.93,0-6.44-16.57,0-29.36,6.44,12.79,10.93,29.36,0,29.36Z"/>
        <g>
          <path class="cls-1" d="M78.61,75.86c-7.22-23.45-21.66-43.76-40.11-59.89C31.26,9.77,23.26,4.43,14.8,0L0,14.08c22.57,8.5,40.12,25.59,54.68,44.8,8.34,11,20.66,39.72,6.27,39.72,0,0,0,11.35,0,11.35,6.99,0,12.31-2.84,15.86-7.82,5.78-7.7,4.09-18,1.8-26.27Z"/>
          <path class="cls-3" d="M107.1,0c-8.46,4.43-16.46,9.77-23.7,15.97-18.45,16.13-32.89,36.44-40.11,59.89-2.3,8.28-3.98,18.58,1.8,26.27,3.55,4.98,8.87,7.82,15.86,7.82,0,0,0-11.35,0-11.35-14.39,0-2.06-28.72,6.27-39.72,14.56-19.21,32.11-36.3,54.68-44.8L107.1,0Z"/>
        </g>
      </g>
    </symbol>
  </defs>
  <g id="Layer_1-2" data-name="Layer 1">
    <g>
      <path class="cls-2" d="M0,81.71v-14.17h1.78l.3,2.32c.38-.87.94-1.52,1.68-1.96.74-.43,1.64-.65,2.7-.65.24,0,.5.02.78.06.28.04.52.11.73.23l-.38,2.07c-.2-.08-.42-.13-.66-.17-.24-.04-.57-.06-1.01-.06-.57,0-1.14.17-1.71.51-.57.34-1.05.85-1.44,1.54-.38.69-.57,1.56-.57,2.62v7.65H0ZM15.97,81.99c-1.3,0-2.45-.29-3.46-.88-1.01-.59-1.8-1.43-2.37-2.54-.57-1.11-.85-2.42-.85-3.95s.28-2.85.85-3.95c.57-1.11,1.34-1.95,2.33-2.54.99-.59,2.11-.88,3.37-.88s2.37.28,3.27.85,1.59,1.34,2.07,2.31c.47.97.71,2.06.71,3.27,0,.32,0,.61-.03.88-.02.26-.05.5-.08.71h-11.06v-2.01h10.1l-1.12.23c0-1.36-.36-2.41-1.08-3.15-.72-.74-1.67-1.11-2.83-1.11-.89,0-1.67.21-2.31.64-.65.43-1.15,1.04-1.51,1.84-.36.8-.53,1.77-.53,2.9s.18,2.08.55,2.89c.36.81.88,1.43,1.55,1.86.67.43,1.46.64,2.4.64,1,0,1.82-.2,2.45-.59s1.14-.94,1.52-1.62l1.72,1.05c-.35.64-.79,1.2-1.33,1.67-.54.47-1.17.84-1.89,1.09-.72.26-1.53.38-2.42.38ZM27.44,61.03v17.09c0,.72.13,1.21.38,1.49.26.27.67.41,1.23.41.36,0,.67-.03.9-.08.24-.06.56-.16.96-.31l-.36,1.98c-.29.13-.61.23-.96.3-.35.07-.7.1-1.07.1-1.11,0-1.94-.31-2.48-.94-.54-.62-.81-1.58-.81-2.86v-17.17h2.19ZM54.54,72.56c0-1.06-.27-1.87-.82-2.45-.55-.58-1.32-.86-2.33-.86-.95,0-1.75.21-2.41.64s-1.14,1.11-1.45,2.05l-1.78-1.13c.36-1.06,1.04-1.91,2.03-2.56.99-.65,2.21-.98,3.67-.98.99,0,1.88.17,2.68.52.8.35,1.44.88,1.9,1.59.47.71.7,1.62.7,2.73v6.86c0,.68.35,1.02,1.04,1.02.35,0,.68-.05,1.01-.14l-.11,1.79c-.37.19-.84.28-1.42.28-.53,0-1-.1-1.42-.31-.42-.21-.75-.52-.99-.95-.24-.43-.36-.96-.36-1.6v-.28l.55.09c-.22.74-.59,1.34-1.12,1.8-.53.46-1.12.8-1.78,1.02-.66.22-1.31.33-1.94.33-.8,0-1.55-.14-2.24-.43-.69-.28-1.25-.71-1.66-1.29-.41-.58-.62-1.29-.62-2.14,0-1.06.34-1.93,1.03-2.62.68-.69,1.64-1.16,2.86-1.4l5.42-1.11v1.87l-4.41.94c-.89.19-1.56.45-2,.79-.44.34-.66.81-.66,1.42s.22,1.06.67,1.43c.45.37,1.08.55,1.9.55.53,0,1.04-.07,1.52-.21.48-.14.92-.36,1.3-.65.38-.29.68-.66.9-1.11.22-.44.33-.97.33-1.57v-3.91ZM42.73,67.31c-2.76,1.74-4.66,4.76-5.37,8.41-.71-3.65-2.61-6.67-5.37-8.41l-1.75,1.46c1.94,1,3.48,2.77,4.56,5.27.98,2.26,1.52,4.98,1.52,7.66h2.08c0-2.68.54-5.41,1.52-7.66,1.08-2.51,2.62-4.28,4.56-5.27l-1.75-1.46Z"/>
      <use width="121.9" height="109.95" transform="translate(4.12) scale(.41)" xlink:href="#New_Symbol"/>
    </g>
  </g>
</svg>