<?xml version="1.0" encoding="UTF-8"?>
<svg id="Layer_2" data-name="Layer 2" xmlns="http://www.w3.org/2000/svg" viewBox="0 0 51.02 18.2">
  <defs>
    <style>
      .cls-1 {
        fill: #1da348;
      }
    </style>
  </defs>
  <g id="Layer_1-2" data-name="Layer 1">
    <path class="cls-1" d="M0,17.96V5.66h1.54l.26,2.02c.33-.75.82-1.32,1.46-1.7.64-.38,1.42-.57,2.34-.57.21,0,.43.02.68.05.25.03.46.1.63.2l-.33,1.8c-.17-.07-.36-.11-.57-.15-.21-.03-.5-.05-.88-.05-.49,0-.99.15-1.49.44-.5.3-.91.74-1.25,1.34-.33.6-.5,1.36-.5,2.28v6.64H0ZM13.86,18.2c-1.13,0-2.13-.25-3.01-.76-.88-.51-1.56-1.24-2.06-2.2-.49-.96-.74-2.1-.74-3.43s.25-2.47.74-3.43c.49-.96,1.16-1.69,2.02-2.2.86-.51,1.83-.76,2.92-.76s2.06.25,2.84.74,1.38,1.16,1.79,2c.41.84.62,1.79.62,2.84,0,.28,0,.53-.02.76-.02.23-.04.43-.07.61h-9.6v-1.75h8.77l-.97.2c0-1.18-.31-2.09-.94-2.73-.63-.64-1.45-.96-2.46-.96-.78,0-1.45.18-2.01.55-.56.37-1,.9-1.31,1.6-.31.7-.46,1.54-.46,2.52s.16,1.8.48,2.51c.32.71.76,1.24,1.34,1.61.58.37,1.27.55,2.08.55.87,0,1.58-.17,2.13-.52s.99-.81,1.32-1.4l1.5.91c-.3.56-.69,1.04-1.15,1.45-.47.41-1.01.73-1.64.95-.63.22-1.33.33-2.1.33ZM23.82,0v14.83c0,.62.11,1.05.33,1.29.22.24.58.36,1.07.36.32,0,.58-.02.78-.07.21-.05.48-.14.83-.27l-.31,1.72c-.25.11-.53.2-.83.26-.3.06-.61.09-.93.09-.97,0-1.68-.27-2.15-.81-.47-.54-.7-1.37-.7-2.48V0h1.9ZM47.34,10.01c0-.92-.24-1.63-.71-2.13-.48-.5-1.15-.75-2.02-.75-.82,0-1.52.18-2.09.55s-.99.96-1.26,1.78l-1.54-.98c.32-.92.9-1.66,1.76-2.23.86-.57,1.92-.85,3.18-.85.86,0,1.63.15,2.33.46.7.3,1.25.76,1.65,1.38.4.61.61,1.41.61,2.37v5.95c0,.59.3.89.9.89.3,0,.59-.04.88-.12l-.09,1.55c-.32.16-.73.25-1.24.25-.46,0-.87-.09-1.24-.27-.36-.18-.65-.46-.86-.82-.21-.37-.31-.83-.31-1.39v-.25l.48.07c-.19.64-.51,1.16-.97,1.56-.46.4-.97.7-1.54.89-.57.19-1.13.28-1.69.28-.7,0-1.35-.12-1.95-.37-.6-.25-1.08-.62-1.44-1.12-.36-.5-.53-1.12-.53-1.86,0-.92.3-1.68.89-2.28.59-.6,1.42-1,2.48-1.22l4.71-.96v1.62l-3.83.81c-.78.16-1.35.39-1.73.69-.38.3-.57.71-.57,1.23s.19.92.58,1.24c.39.32.94.48,1.65.48.46,0,.9-.06,1.32-.18.42-.12.8-.31,1.13-.57.33-.25.59-.57.78-.96.19-.39.29-.84.29-1.37v-3.39ZM37.09,5.46c-2.39,1.51-4.05,4.13-4.66,7.3-.62-3.17-2.27-5.79-4.66-7.3l-1.52,1.27c1.69.86,3.02,2.4,3.96,4.58.85,1.96,1.32,4.32,1.32,6.65h1.81c0-2.33.47-4.69,1.32-6.65.94-2.17,2.27-3.71,3.96-4.58l-1.52-1.27Z"/>
  </g>
</svg>