<?xml version="1.0" encoding="UTF-8"?>
<svg id="Layer_2" xmlns="http://www.w3.org/2000/svg" version="1.1" viewBox="0 0 51 18.2">
  <!-- Generator: Adobe Illustrator 29.8.4, SVG Export Plug-In . SVG Version: 2.1.1 Build 6)  -->
  <defs>
    <style>
      .st0 {
        fill: #fff;
      }
    </style>
  </defs>
  <g id="Layer_1-2">
    <path class="st0" d="M0,18V5.7h1.5l.3,2c.3-.8.8-1.3,1.5-1.7s1.4-.6,2.3-.6.4,0,.7,0,.5,0,.6.2l-.3,1.8c-.2,0-.4-.1-.6-.2-.2,0-.5,0-.9,0s-1,.2-1.5.4c-.5.3-.9.7-1.2,1.3-.3.6-.5,1.4-.5,2.3v6.6H0ZM13.9,18.2c-1.1,0-2.1-.2-3-.8s-1.6-1.2-2.1-2.2c-.5-1-.7-2.1-.7-3.4s.2-2.5.7-3.4,1.2-1.7,2-2.2c.9-.5,1.8-.8,2.9-.8s2.1.2,2.8.7,1.4,1.2,1.8,2c.4.8.6,1.8.6,2.8s0,.5,0,.8c0,.2,0,.4,0,.6h-9.6v-1.8h8.8l-1,.2c0-1.2-.3-2.1-.9-2.7-.6-.6-1.4-1-2.5-1s-1.4.2-2,.6c-.6.4-1,.9-1.3,1.6-.3.7-.5,1.5-.5,2.5s.2,1.8.5,2.5.8,1.2,1.3,1.6,1.3.6,2.1.6,1.6-.2,2.1-.5c.6-.4,1-.8,1.3-1.4l1.5.9c-.3.6-.7,1-1.1,1.5-.5.4-1,.7-1.6,1-.6.2-1.3.3-2.1.3h0ZM23.8,0v14.8c0,.6.1,1.1.3,1.3.2.2.6.4,1.1.4s.6,0,.8,0c.2,0,.5-.1.8-.3l-.3,1.7c-.2.1-.5.2-.8.3s-.6,0-.9,0c-1,0-1.7-.3-2.1-.8-.5-.5-.7-1.4-.7-2.5V0h1.9ZM47.3,10c0-.9-.2-1.6-.7-2.1-.5-.5-1.2-.8-2-.8s-1.5.2-2.1.6c-.6.4-1,1-1.3,1.8l-1.5-1c.3-.9.9-1.7,1.8-2.2.9-.6,1.9-.8,3.2-.8s1.6.2,2.3.5c.7.3,1.2.8,1.7,1.4.4.6.6,1.4.6,2.4v5.9c0,.6.3.9.9.9s.6,0,.9-.1v1.5c-.4.2-.8.2-1.3.2s-.9,0-1.2-.3c-.4-.2-.7-.5-.9-.8-.2-.4-.3-.8-.3-1.4v-.2h.5c-.2.7-.5,1.2-1,1.6-.5.4-1,.7-1.5.9-.6.2-1.1.3-1.7.3s-1.3-.1-2-.4c-.6-.2-1.1-.6-1.4-1.1-.4-.5-.5-1.1-.5-1.9s.3-1.7.9-2.3c.6-.6,1.4-1,2.5-1.2l4.7-1v1.6l-3.8.8c-.8.2-1.3.4-1.7.7-.4.3-.6.7-.6,1.2s.2.9.6,1.2c.4.3.9.5,1.7.5s.9,0,1.3-.2.8-.3,1.1-.6c.3-.2.6-.6.8-1s.3-.8.3-1.4v-3.4h0ZM37.1,5.5c-2.4,1.5-4,4.1-4.7,7.3-.6-3.2-2.3-5.8-4.7-7.3l-1.5,1.3c1.7.9,3,2.4,4,4.6.9,2,1.3,4.3,1.3,6.6h1.8c0-2.3.5-4.7,1.3-6.6.9-2.2,2.3-3.7,4-4.6l-1.5-1.3h0Z"/>
  </g>
</svg>