<?xml version="1.0" encoding="UTF-8"?>
<svg id="Layer_2" xmlns="http://www.w3.org/2000/svg" xmlns:xlink="http://www.w3.org/1999/xlink" version="1.1" viewBox="0 0 512 512">
  <!-- Generator: Adobe Illustrator 29.8.4, SVG Export Plug-In . SVG Version: 2.1.1 Build 6)  -->
  <defs>
    <style>
      .st0 {
        fill: url(#linear-gradient);
      }

      .st1 {
        fill: #63c34a;
      }
    </style>
    <linearGradient id="linear-gradient" x1="75.6" y1="104.8" x2="15" y2="-.1" gradientUnits="userSpaceOnUse">
      <stop offset="0" stop-color="#63c34a"/>
      <stop offset=".2" stop-color="#1da348"/>
      <stop offset=".6" stop-color="#168e40"/>
    </linearGradient>
    <symbol id="New_Symbol" viewBox="0 0 121.9 110">
      <g>
        <path class="st1" d="M121.9,14.1L107.1,0c-8.5,4.4-16.5,9.8-23.7,16-8.4,7.4-16,15.6-22.5,24.6-6.4-9-14-17.3-22.5-24.6C31.3,9.8,23.3,4.4,14.8,0L0,14.1c21.1,8,37.9,23.5,51.9,41.2-3.5,6.6-6.4,13.4-8.6,20.6-2.3,8.3-4,18.6,1.8,26.3,3.6,5,8.9,7.8,15.9,7.8h0c7,0,12.3-2.8,15.9-7.8,5.8-7.7,4.1-18,1.8-26.3-2.2-7.2-5.1-14.1-8.6-20.6,14-17.7,30.7-33.2,51.9-41.2ZM61,98.6c-10.9,0-6.4-16.6,0-29.4,6.4,12.8,10.9,29.4,0,29.4Z"/>
        <g>
          <path class="st0" d="M78.6,75.9c-7.2-23.5-21.7-43.8-40.1-59.9C31.3,9.8,23.3,4.4,14.8,0L0,14.1c22.6,8.5,40.1,25.6,54.7,44.8,8.3,11,20.7,39.7,6.3,39.7,0,0,0,11.4,0,11.4,7,0,12.3-2.8,15.9-7.8,5.8-7.7,4.1-18,1.8-26.3Z"/>
          <path class="st1" d="M107.1,0c-8.5,4.4-16.5,9.8-23.7,16-18.4,16.1-32.9,36.4-40.1,59.9-2.3,8.3-4,18.6,1.8,26.3,3.6,5,8.9,7.8,15.9,7.8,0,0,0-11.4,0-11.4-14.4,0-2.1-28.7,6.3-39.7,14.6-19.2,32.1-36.3,54.7-44.8L107.1,0Z"/>
        </g>
      </g>
    </symbol>
  </defs>
  <use width="121.9" height="110" transform="translate(0 4.4) scale(4.2)" xlink:href="#New_Symbol"/>
</svg>