<?xml version="1.0" encoding="UTF-8"?>
<svg id="Layer_2" data-name="Layer 2" xmlns="http://www.w3.org/2000/svg" viewBox="0 0 512 512">
  <defs>
    <style>
      .cls-1 {
        fill: #1da348;
      }

      .cls-2 {
        fill: #fff;
      }
    </style>
  </defs>
  <g id="Layer_1-2" data-name="Layer 1">
    <g>
      <circle class="cls-2" cx="256" cy="256" r="256"/>
      <g>
        <path class="cls-1" d="M256,394.84c38.3,0,22.57-57.71,0-102.25-22.57,44.53-38.3,102.25,0,102.25Z"/>
        <path class="cls-1" d="M177.35,107.09c29.52,25.66,56.07,54.39,78.66,85.77,22.59-31.38,49.13-60.11,78.65-85.77,24.05-20.47,50.52-38.26,78.47-53.19C369.75,20.12,315.23,0,256,0s-113.75,20.12-157.12,53.89c27.95,14.93,54.42,32.72,78.47,53.2Z"/>
        <path class="cls-1" d="M461.69,103.58c-70.35,28.5-126.56,80.81-173.86,140.28,12.16,22.84,22.29,46.8,30.03,71.79,8.05,28.82,13.96,64.69-6.29,91.49-12.45,17.34-31.09,27.22-55.57,27.22s-43.12-9.88-55.57-27.22c-20.25-26.8-14.34-62.67-6.29-91.49,7.74-24.99,17.88-48.95,30.03-71.79-47.29-59.47-103.51-111.78-173.86-140.28C18.7,146.17,0,198.9,0,256,0,397.38,114.62,512,256,512s256-114.62,256-256c0-57.1-18.7-109.83-50.31-152.42Z"/>
      </g>
    </g>
  </g>
</svg>